<?xml version="1.0" standalone="no"?>
<!DOCTYPE svg PUBLIC "-//W3C//DTD SVG 20010904//EN"
 "http://www.w3.org/TR/2001/REC-SVG-20010904/DTD/svg10.dtd">
<svg version="1.0" xmlns="http://www.w3.org/2000/svg"
 width="77.000000pt" height="156.000000pt" viewBox="0 0 77.000000 156.000000"
 preserveAspectRatio="xMidYMid meet">

<g transform="translate(0.000000,156.000000) scale(0.100000,-0.100000)"
fill="#000000" stroke="none">
<path d="M0 1406 l0 -153 32 -7 c17 -3 62 -9 100 -13 l68 -6 0 32 c0 32 -14
42 -24 16 -8 -22 -53 -19 -66 4 -5 11 -7 26 -4 34 3 8 -6 26 -21 41 -22 23
-25 31 -20 78 3 32 15 67 30 90 l25 38 -60 0 -60 0 0 -154z"/>
<path d="M193 1549 c27 -16 22 -57 -9 -71 -22 -10 -31 -9 -57 5 -33 19 -47 11
-47 -27 0 -16 3 -17 12 -8 26 26 75 2 62 -31 -8 -22 -39 -30 -64 -17 -24 13
-26 3 -4 -28 18 -26 78 -31 108 -9 18 13 18 15 2 39 -17 26 -13 58 8 58 20 0
36 -23 36 -51 0 -20 6 -28 25 -33 30 -8 32 -22 5 -29 -17 -4 -19 -11 -14 -31
4 -19 1 -28 -15 -38 -26 -16 -27 -43 -3 -53 29 -11 242 -35 314 -35 45 0 68 4
68 12 0 17 13 0 15 -20 1 -9 5 -51 10 -94 9 -99 4 -102 -125 -76 -52 10 -120
20 -150 22 -30 2 -64 8 -74 12 -15 6 -12 -5 17 -57 22 -38 43 -63 52 -63 42 4
24 -98 -40 -226 -25 -49 -45 -102 -45 -118 0 -26 2 -28 33 -24 43 6 87 38 87
64 0 17 -3 18 -15 8 -8 -6 -20 -10 -27 -8 -8 3 -2 11 14 22 21 14 31 15 47 6
28 -14 44 -46 35 -72 -6 -20 -4 -21 36 -14 63 10 97 32 120 76 18 35 20 51 14
137 -5 79 -11 102 -27 120 -11 13 -17 26 -14 29 10 10 107 -94 107 -114 0 -9
-7 -26 -15 -36 -20 -27 -19 -48 7 -108 21 -49 21 -52 5 -98 -23 -65 -21 -92 8
-124 l25 -27 0 38 c0 21 5 72 11 113 10 63 9 87 -5 147 -19 87 -21 132 -5 116
7 -7 20 -54 29 -105 l18 -93 1 463 1 462 -297 0 c-207 -1 -293 -4 -280 -11z"/>
<path d="M144 1540 c-48 -19 -37 -50 17 -50 32 0 44 24 23 45 -9 8 -16 15 -17
14 -1 0 -12 -4 -23 -9z"/>
<path d="M102 1438 c-19 -19 -14 -30 10 -26 13 2 24 11 26 21 4 20 -18 23 -36
5z"/>
<path d="M202 1430 c1 -13 9 -25 16 -28 17 -5 15 23 -4 39 -14 11 -15 10 -12
-11z"/>
<path d="M209 1354 c-12 -15 -11 -16 11 -9 35 10 49 25 23 25 -11 0 -27 -7
-34 -16z"/>
<path d="M180 1320 c0 -5 5 -10 10 -10 6 0 10 5 10 10 0 6 -4 10 -10 10 -5 0
-10 -4 -10 -10z"/>
<path d="M222 1318 c-16 -16 -15 -28 3 -28 8 0 15 9 15 20 0 23 -2 24 -18 8z"/>
<path d="M148 1313 c7 -3 16 -2 19 1 4 3 -2 6 -13 5 -11 0 -14 -3 -6 -6z"/>
<path d="M122 1292 c4 -19 29 -23 35 -6 2 6 -6 14 -17 17 -16 4 -20 1 -18 -11z"/>
<path d="M24 1201 c3 -20 6 -46 6 -57 0 -17 8 -23 38 -28 20 -4 44 -9 53 -12
12 -3 18 4 22 30 6 36 -10 85 -28 86 -5 1 -30 5 -54 9 l-43 9 6 -37z"/>
<path d="M1 613 l-1 -613 350 0 c336 0 350 1 350 19 0 10 3 32 6 48 6 29 5 30
-25 25 -40 -6 -47 14 -49 138 -1 73 3 104 18 138 28 63 26 72 -15 72 -26 0
-38 -5 -43 -20 -8 -20 -119 -116 -173 -149 -42 -26 -63 -15 -77 41 -18 72 -22
176 -6 182 17 7 27 -9 19 -33 -5 -16 3 -19 72 -24 43 -3 80 -4 82 -1 13 13
-20 40 -55 45 -21 3 -33 7 -25 8 27 2 2 13 -61 27 -77 16 -135 18 -144 3 -5
-8 -9 -8 -14 1 -9 15 8 70 21 70 12 0 11 -7 -1 -31 -6 -10 -7 -19 -3 -19 18 1
31 17 37 50 3 19 28 82 56 140 50 104 66 157 34 112 -12 -17 -25 -22 -57 -22
l-42 1 38 14 c55 19 55 23 -3 22 -58 -2 -74 11 -66 56 5 23 2 27 -16 27 -15 0
-19 3 -11 11 5 5 8 21 5 35 -4 21 -9 24 -31 19 -24 -5 -26 -3 -28 31 -2 47
-26 65 -80 62 -43 -3 -43 -3 -44 32 -1 19 -5 49 -9 65 -4 17 -8 -246 -9 -582z"/>
<path d="M152 1204 c9 -9 24 -14 32 -11 27 11 17 27 -16 27 -30 0 -31 -1 -16
-16z"/>
<path d="M233 1193 c-7 -2 -13 -13 -13 -24 0 -17 -3 -18 -20 -9 -22 12 -27 1
-7 -19 10 -10 8 -15 -7 -27 -24 -17 -23 -18 42 -32 74 -17 81 -16 75 9 -5 19
-3 20 31 14 20 -4 36 -5 36 -2 0 2 -19 17 -41 32 -30 20 -38 30 -30 38 6 6 11
15 11 19 0 9 -57 10 -77 1z"/>
<path d="M321 1176 c-9 -11 -3 -19 34 -42 25 -16 45 -32 45 -36 0 -5 -18 -8
-41 -8 -56 0 -46 -22 17 -36 106 -24 234 -45 244 -39 11 7 13 96 4 131 -5 18
-18 22 -132 32 -158 15 -157 15 -171 -2z"/>
<path d="M156 1143 c-11 -11 -6 -23 9 -23 8 0 15 4 15 9 0 13 -16 22 -24 14z"/>
<path d="M160 1065 c0 -8 2 -15 4 -15 2 0 6 7 10 15 3 8 1 15 -4 15 -6 0 -10
-7 -10 -15z"/>
<path d="M180 1050 c-10 -18 -8 -19 22 -13 18 3 35 7 37 9 2 2 13 -4 23 -13
18 -16 18 -16 12 3 -10 25 -23 34 -56 34 -17 0 -31 -7 -38 -20z"/>
<path d="M227 990 c-4 -16 0 -20 18 -20 13 0 35 -4 49 -10 41 -15 21 18 -21
35 -44 18 -40 19 -46 -5z"/>
<path d="M248 924 c-12 -12 12 -44 33 -44 17 0 38 25 28 35 -9 8 -55 16 -61 9z"/>
<path d="M631 823 c0 -21 4 -46 8 -56 6 -15 9 -13 23 16 15 31 15 37 2 56 -22
31 -34 26 -33 -16z"/>
<path d="M627 647 c-17 -37 -37 -64 -56 -74 l-29 -17 36 -21 c56 -32 53 -45
-13 -45 -48 0 -56 -3 -51 -16 3 -9 9 -27 12 -41 6 -23 5 -25 -22 -19 -16 3
-55 8 -86 12 -56 6 -58 5 -68 -20 -12 -33 6 -125 26 -133 8 -3 26 3 42 13 49
32 157 128 167 148 8 15 21 21 44 21 30 0 32 2 27 28 -3 16 2 51 13 81 17 50
17 54 1 96 l-17 43 -26 -56z"/>
<path d="M420 619 c0 -7 -12 -26 -27 -41 l-27 -28 25 0 c14 0 30 5 37 12 15
15 16 54 2 63 -5 3 -10 1 -10 -6z"/>
<path d="M748 585 c-14 -62 -19 -151 -10 -180 9 -30 9 -30 16 15 9 58 4 208
-6 165z"/>
<path d="M358 533 c7 -3 16 -2 19 1 4 3 -2 6 -13 5 -11 0 -14 -3 -6 -6z"/>
<path d="M405 531 c-15 -6 -6 -10 35 -14 115 -13 150 -14 150 -7 0 25 -136 40
-185 21z"/>
<path d="M668 366 c-26 -59 -27 -68 -20 -161 7 -98 14 -113 42 -95 26 16 35
262 11 307 -3 6 -18 -17 -33 -51z"/>
<path d="M756 353 c-22 -196 -28 -244 -34 -295 l-8 -58 28 0 28 0 0 205 c0
113 -2 205 -4 205 -2 0 -7 -26 -10 -57z"/>
</g>
</svg>
